<?xml version="1.0" encoding="UTF-8" standalone="no"?>
<!DOCTYPE svg PUBLIC "-//W3C//DTD SVG 1.1//EN" "http://www.w3.org/Graphics/SVG/1.1/DTD/svg11.dtd">
<svg width="100%" height="100%" viewBox="0 0 1501 406" version="1.1" xmlns="http://www.w3.org/2000/svg" xmlns:xlink="http://www.w3.org/1999/xlink" xml:space="preserve" xmlns:serif="http://www.serif.com/" style="fill-rule:evenodd;clip-rule:evenodd;stroke-linejoin:round;stroke-miterlimit:2;">
    <g id="Artboard1" transform="matrix(1,0,0,1,-449.618,-1597.07)">
        <rect x="449.618" y="1597.07" width="1500.77" height="405.858" style="fill:none;"/>
        <clipPath id="_clip1">
            <rect x="449.618" y="1597.07" width="1500.77" height="405.858"/>
        </clipPath>
        <g clip-path="url(#_clip1)">
            <g transform="matrix(4.16667,0,0,4.16667,739.289,1829.29)">
                <path d="M0,-14.026L-30.267,-14.026C-31.048,-14.026 -31.682,-13.392 -31.682,-12.611L-31.682,2.187C-31.682,2.968 -31.048,3.604 -30.267,3.604L-18.46,3.604L-18.46,21.989C-18.46,21.989 -21.111,22.893 -28.441,22.893C-37.088,22.893 -49.168,19.733 -49.168,-6.831C-49.168,-33.4 -36.589,-36.895 -24.78,-36.895C-14.558,-36.895 -10.154,-35.096 -7.352,-34.228C-6.471,-33.959 -5.657,-34.836 -5.657,-35.617L-2.28,-49.915C-2.28,-50.281 -2.404,-50.72 -2.82,-51.019C-3.958,-51.832 -10.901,-55.716 -28.441,-55.716C-48.646,-55.716 -69.373,-47.12 -69.373,-5.795C-69.373,35.532 -45.643,41.69 -25.646,41.69C-9.089,41.69 0.955,34.615 0.955,34.615C1.369,34.386 1.414,33.807 1.414,33.542L1.414,-12.611C1.414,-13.392 0.781,-14.026 0,-14.026" style="fill:white;fill-rule:nonzero;"/>
            </g>
            <g transform="matrix(4.16667,0,0,4.16667,1389.22,1989.36)">
                <path d="M0,-89.181C0,-89.969 -0.624,-90.604 -1.405,-90.604L-18.447,-90.604C-19.226,-90.604 -19.858,-89.969 -19.858,-89.181C-19.858,-89.178 -19.854,-56.247 -19.854,-56.247L-46.418,-56.247L-46.418,-89.181C-46.418,-89.969 -47.045,-90.604 -47.825,-90.604L-64.866,-90.604C-65.641,-90.604 -66.273,-89.969 -66.273,-89.181L-66.273,-0.004C-66.273,0.783 -65.641,1.423 -64.866,1.423L-47.825,1.423C-47.045,1.423 -46.418,0.783 -46.418,-0.004L-46.418,-38.149L-19.854,-38.149C-19.854,-38.149 -19.9,-0.007 -19.9,-0.004C-19.9,0.783 -19.269,1.423 -18.488,1.423L-1.406,1.423C-0.626,1.423 -0.002,0.783 0,-0.004L0,-89.181Z" style="fill:white;fill-rule:nonzero;"/>
            </g>
            <g transform="matrix(0,-4.16667,-4.16667,0,827.482,1620.76)">
                <path d="M-10.984,-10.993C-4.848,-10.993 0.111,-6.073 0.111,-0.003C0.111,6.061 -4.848,10.984 -10.984,10.984C-17.115,10.984 -22.088,6.061 -22.088,-0.003C-22.088,-6.073 -17.115,-10.993 -10.984,-10.993" style="fill:white;fill-rule:nonzero;"/>
            </g>
            <g transform="matrix(4.16667,0,0,4.16667,868.208,1817.8)">
                <path d="M0,40.308L0,-18.805C0,-19.587 -0.63,-20.226 -1.41,-20.226L-18.398,-20.226C-19.178,-20.226 -19.875,-19.422 -19.875,-18.641L-19.875,40.336C-19.875,42.069 -18.795,42.585 -17.397,42.585L-2.091,42.585C-0.412,42.585 0,41.759 0,40.308Z" style="fill:white;fill-rule:nonzero;"/>
            </g>
            <g transform="matrix(4.16667,0,0,4.16667,1659.09,2002.92)">
                <path d="M0,-64.52L-16.911,-64.52C-17.687,-64.52 -18.318,-63.88 -18.318,-63.093L-18.318,-19.368C-18.318,-19.368 -22.615,-16.224 -28.713,-16.224C-34.811,-16.224 -36.429,-18.991 -36.429,-24.961L-36.429,-63.093C-36.429,-63.88 -37.059,-64.52 -37.835,-64.52L-54.999,-64.52C-55.773,-64.52 -56.408,-63.88 -56.408,-63.093L-56.408,-22.075C-56.408,-4.339 -46.524,0 -32.927,0C-21.771,0 -12.777,-6.164 -12.777,-6.164C-12.777,-6.164 -12.35,-2.916 -12.155,-2.531C-11.962,-2.147 -11.457,-1.758 -10.911,-1.758L0.008,-1.807C0.782,-1.807 1.417,-2.447 1.417,-3.231L1.411,-63.093C1.411,-63.88 0.779,-64.52 0,-64.52" style="fill:white;fill-rule:nonzero;"/>
            </g>
            <g transform="matrix(4.16667,0,0,4.16667,1823.88,1679.35)">
                <path d="M0,61.378C-5.866,61.199 -9.845,58.537 -9.845,58.537L-9.845,30.297C-9.845,30.297 -5.92,27.891 -1.104,27.461C4.986,26.915 10.854,28.755 10.854,43.282C10.854,58.602 8.206,61.625 0,61.378M6.67,11.133C-2.935,11.133 -9.468,15.418 -9.468,15.418L-9.468,-14.778C-9.468,-15.566 -10.098,-16.201 -10.874,-16.201L-27.965,-16.201C-28.742,-16.201 -29.373,-15.566 -29.373,-14.778L-29.373,74.399C-29.373,75.186 -28.742,75.825 -27.963,75.825L-16.105,75.825C-15.571,75.825 -15.167,75.55 -14.868,75.068C-14.573,74.589 -14.148,70.956 -14.148,70.956C-14.148,70.956 -7.16,77.579 6.069,77.579C21.601,77.579 30.508,69.701 30.508,42.213C30.508,14.725 16.282,11.133 6.67,11.133" style="fill:white;fill-rule:nonzero;"/>
            </g>
            <g transform="matrix(4.16667,0,0,4.16667,1072.29,1927.83)">
                <path d="M0,-46.64L-12.784,-46.64C-12.784,-46.64 -12.803,-63.525 -12.803,-63.529C-12.803,-64.168 -13.132,-64.488 -13.872,-64.488L-31.292,-64.488C-31.969,-64.488 -32.333,-64.19 -32.333,-63.538L-32.333,-46.086C-32.333,-46.086 -41.063,-43.979 -41.653,-43.809C-42.241,-43.638 -42.674,-43.096 -42.674,-42.45L-42.674,-31.483C-42.674,-30.694 -42.044,-30.057 -41.265,-30.057L-32.333,-30.057L-32.333,-3.673C-32.333,15.923 -18.587,17.848 -9.312,17.848C-5.073,17.848 -0.003,16.487 0.834,16.178C1.34,15.992 1.635,15.467 1.635,14.899L1.649,2.835C1.649,2.048 0.984,1.411 0.236,1.411C-0.509,1.411 -2.415,1.714 -4.377,1.714C-10.656,1.714 -12.784,-1.205 -12.784,-4.985C-12.784,-8.761 -12.785,-30.057 -12.785,-30.057L0,-30.057C0.779,-30.057 1.411,-30.694 1.411,-31.483L1.411,-45.219C1.411,-46.006 0.779,-46.64 0,-46.64" style="fill:white;fill-rule:nonzero;"/>
            </g>
        </g>
    </g>
</svg>
