<?xml version="1.0" encoding="UTF-8" standalone="no"?>
<!DOCTYPE svg PUBLIC "-//W3C//DTD SVG 1.1//EN" "http://www.w3.org/Graphics/SVG/1.1/DTD/svg11.dtd">
<svg width="100%" height="100%" viewBox="0 0 315 85" version="1.1" xmlns="http://www.w3.org/2000/svg" xmlns:xlink="http://www.w3.org/1999/xlink" xml:space="preserve" xmlns:serif="http://www.serif.com/" style="fill-rule:evenodd;clip-rule:evenodd;stroke-linejoin:round;stroke-miterlimit:2;">
    <g id="Artboard1" transform="matrix(0.802411,0,0,0.681732,-615.337,-878.556)">
        <rect x="766.861" y="1288.71" width="391.999" height="123.569" style="fill:none;"/>
        <g transform="matrix(0.723652,0,0,0.85175,221.208,201.324)">
            <path d="M854.871,1288.71L887.164,1307.44L887.164,1339.06L914.543,1355.2L914.543,1393.53L882.962,1412.28L854.906,1395.85L826.979,1412.02L794.946,1393.12L794.946,1361.58L766.861,1344.73L766.861,1307.72L799.488,1289L827.199,1303.98L854.871,1288.71ZM815.47,1310.42L800.12,1300.87L783.077,1309.87L798.69,1319.83L815.47,1310.42ZM855.185,1301.04L799.399,1332.48L776.645,1319.41L776.639,1339.03L799.554,1351.99L854.955,1320.57L877.164,1332.42L877.164,1313.56L855.185,1301.04ZM854.994,1332.78L838.842,1342.21L854.586,1351.59L870.935,1341.96L854.994,1332.78ZM827.266,1348.83L811.065,1358.49L826.966,1367.69L843.216,1357.91L827.266,1348.83ZM882.944,1348.79L827.054,1380.08L805.061,1367.74L805.061,1386.9L827.101,1399.81L882.826,1368.23L904.415,1380.27L904.415,1361.61L882.944,1348.79ZM882.963,1380.57L866.097,1390.14L882.862,1400.01L899.022,1389.44L882.963,1380.57Z" style="fill:rgb(249,191,75);"/>
        </g>
        <g transform="matrix(1.63506,0,0,2.03079,-687.312,-1361.68)">
            <g transform="matrix(50,0,0,50,1123.69,1352.53)">
            </g>
            <text x="976.541px" y="1352.53px" style="font-family:'AvenirNext-Bold', 'Avenir Next', sans-serif;font-weight:700;font-size:50px;fill:rgb(249,191,75);">v<tspan x="1003.39px 1032.19px 1058.34px 1089.29px 1105.09px " y="1352.53px 1352.53px 1352.53px 1352.53px 1352.53px ">ecbit</tspan></text>
        </g>
    </g>
</svg>
