<?xml version="1.0" encoding="UTF-8" standalone="no"?>
<!DOCTYPE svg PUBLIC "-//W3C//DTD SVG 1.1//EN" "http://www.w3.org/Graphics/SVG/1.1/DTD/svg11.dtd">
<svg width="100%" height="100%" viewBox="0 0 392 124" version="1.1" xmlns="http://www.w3.org/2000/svg" xmlns:xlink="http://www.w3.org/1999/xlink" xml:space="preserve" xmlns:serif="http://www.serif.com/" style="fill-rule:evenodd;clip-rule:evenodd;stroke-linejoin:round;stroke-miterlimit:2;">
    <g id="Artboard1" transform="matrix(1,0,0,1,-766.861,-1288.71)">
        <rect x="766.861" y="1288.71" width="391.999" height="123.569" style="fill:none;"/>
        <clipPath id="_clip1">
            <rect x="766.861" y="1288.71" width="391.999" height="123.569"/>
        </clipPath>
        <g clip-path="url(#_clip1)">
            <g transform="matrix(1,0,0,1,0.860881,0.710386)">
                <path d="M854.871,1288.71L887.164,1307.44L887.164,1339.06L914.543,1355.2L914.543,1393.53L882.962,1412.28L854.906,1395.85L826.979,1412.02L794.946,1393.12L794.946,1361.58L766.861,1344.73L766.861,1307.72L799.488,1289L827.199,1303.98L854.871,1288.71ZM815.47,1310.42L800.12,1300.87L783.077,1309.87L798.69,1319.83L815.47,1310.42ZM855.185,1301.04L799.399,1332.48L776.645,1319.41L776.639,1339.03L799.554,1351.99L854.955,1320.57L877.164,1332.42L877.164,1313.56L855.185,1301.04ZM854.994,1332.78L838.842,1342.21L854.586,1351.59L870.935,1341.96L854.994,1332.78ZM827.266,1348.83L811.065,1358.49L826.966,1367.69L843.216,1357.91L827.266,1348.83ZM882.944,1348.79L827.054,1380.08L805.061,1367.74L805.061,1386.9L827.101,1399.81L882.826,1368.23L904.415,1380.27L904.415,1361.61L882.944,1348.79ZM882.963,1380.57L866.097,1390.14L882.862,1400.01L899.022,1389.44L882.963,1380.57Z" style="fill:rgb(249,191,75);"/>
            </g>
            <g transform="matrix(1.31199,0,0,1.38446,-337.253,-500.708)">
                <g transform="matrix(50,0,0,50,976.541,1352.53)">
                    <path d="M0.372,-0L0.195,-0L-0.001,-0.498L0.18,-0.498L0.285,-0.175L0.288,-0.175L0.393,-0.498L0.568,-0.498L0.372,-0Z" style="fill:rgb(249,191,75);fill-rule:nonzero;"/>
                </g>
                <g transform="matrix(50,0,0,50,1003.39,1352.53)">
                    <path d="M0.407,-0.306C0.407,-0.332 0.399,-0.354 0.383,-0.373C0.366,-0.392 0.342,-0.401 0.309,-0.401C0.293,-0.401 0.278,-0.399 0.265,-0.394C0.252,-0.389 0.24,-0.382 0.23,-0.373C0.22,-0.364 0.212,-0.354 0.206,-0.343C0.2,-0.331 0.197,-0.319 0.196,-0.306L0.407,-0.306ZM0.558,-0.243L0.558,-0.223C0.558,-0.216 0.558,-0.21 0.557,-0.204L0.196,-0.204C0.197,-0.19 0.202,-0.177 0.209,-0.166C0.216,-0.155 0.225,-0.145 0.236,-0.137C0.247,-0.128 0.259,-0.122 0.273,-0.117C0.286,-0.112 0.3,-0.11 0.315,-0.11C0.341,-0.11 0.363,-0.115 0.381,-0.125C0.399,-0.134 0.414,-0.147 0.425,-0.162L0.539,-0.09C0.516,-0.056 0.485,-0.03 0.447,-0.012C0.408,0.007 0.364,0.016 0.313,0.016C0.276,0.016 0.24,0.01 0.207,-0.002C0.174,-0.013 0.145,-0.03 0.12,-0.053C0.095,-0.075 0.075,-0.102 0.061,-0.135C0.046,-0.168 0.039,-0.205 0.039,-0.247C0.039,-0.288 0.046,-0.325 0.06,-0.358C0.074,-0.391 0.093,-0.419 0.117,-0.442C0.141,-0.464 0.169,-0.482 0.202,-0.495C0.235,-0.508 0.27,-0.514 0.308,-0.514C0.345,-0.514 0.378,-0.508 0.409,-0.496C0.44,-0.483 0.466,-0.465 0.488,-0.442C0.51,-0.419 0.527,-0.39 0.54,-0.357C0.552,-0.324 0.558,-0.286 0.558,-0.243Z" style="fill:rgb(249,191,75);fill-rule:nonzero;"/>
                </g>
                <g transform="matrix(50,0,0,50,1032.19,1352.53)">
                    <path d="M0.407,-0.337C0.398,-0.349 0.385,-0.359 0.369,-0.366C0.353,-0.373 0.337,-0.377 0.32,-0.377C0.303,-0.377 0.287,-0.374 0.273,-0.367C0.259,-0.36 0.247,-0.35 0.237,-0.339C0.227,-0.327 0.219,-0.313 0.214,-0.298C0.208,-0.283 0.205,-0.266 0.205,-0.249C0.205,-0.232 0.208,-0.215 0.213,-0.2C0.218,-0.185 0.226,-0.171 0.237,-0.16C0.247,-0.148 0.259,-0.139 0.274,-0.132C0.288,-0.125 0.304,-0.122 0.322,-0.122C0.339,-0.122 0.355,-0.125 0.372,-0.132C0.388,-0.138 0.401,-0.147 0.411,-0.159L0.502,-0.048C0.481,-0.028 0.455,-0.012 0.422,-0.001C0.389,0.01 0.355,0.016 0.318,0.016C0.279,0.016 0.242,0.01 0.208,-0.002C0.174,-0.014 0.145,-0.032 0.12,-0.055C0.095,-0.078 0.075,-0.105 0.061,-0.138C0.046,-0.171 0.039,-0.208 0.039,-0.249C0.039,-0.29 0.046,-0.326 0.061,-0.359C0.075,-0.392 0.095,-0.42 0.12,-0.443C0.145,-0.466 0.174,-0.483 0.208,-0.496C0.242,-0.508 0.278,-0.514 0.317,-0.514C0.335,-0.514 0.353,-0.512 0.371,-0.509C0.388,-0.506 0.405,-0.501 0.422,-0.496C0.438,-0.49 0.453,-0.483 0.467,-0.475C0.48,-0.466 0.492,-0.457 0.502,-0.447L0.407,-0.337Z" style="fill:rgb(249,191,75);fill-rule:nonzero;"/>
                </g>
                <g transform="matrix(50,0,0,50,1058.34,1352.53)">
                    <path d="M0.619,-0.251C0.619,-0.216 0.614,-0.183 0.603,-0.151C0.592,-0.119 0.577,-0.091 0.557,-0.067C0.536,-0.042 0.511,-0.023 0.482,-0.008C0.453,0.007 0.419,0.014 0.382,0.014C0.349,0.014 0.317,0.007 0.288,-0.007C0.258,-0.02 0.235,-0.04 0.219,-0.065L0.217,-0.065L0.217,-0L0.066,-0L0.066,-0.756L0.23,-0.756L0.23,-0.445L0.232,-0.445C0.246,-0.462 0.266,-0.477 0.291,-0.491C0.316,-0.505 0.347,-0.512 0.384,-0.512C0.42,-0.512 0.452,-0.505 0.482,-0.491C0.511,-0.477 0.535,-0.458 0.556,-0.434C0.576,-0.41 0.592,-0.382 0.603,-0.351C0.614,-0.319 0.619,-0.286 0.619,-0.251ZM0.461,-0.251C0.461,-0.267 0.459,-0.283 0.454,-0.298C0.448,-0.313 0.441,-0.327 0.431,-0.339C0.421,-0.35 0.409,-0.36 0.394,-0.367C0.379,-0.374 0.362,-0.378 0.343,-0.378C0.324,-0.378 0.308,-0.374 0.293,-0.367C0.278,-0.36 0.266,-0.35 0.256,-0.338C0.245,-0.326 0.237,-0.312 0.232,-0.297C0.226,-0.282 0.223,-0.266 0.223,-0.25C0.223,-0.234 0.226,-0.218 0.232,-0.203C0.237,-0.188 0.245,-0.174 0.256,-0.162C0.266,-0.15 0.278,-0.14 0.293,-0.133C0.308,-0.126 0.324,-0.122 0.343,-0.122C0.362,-0.122 0.379,-0.126 0.394,-0.133C0.409,-0.14 0.421,-0.15 0.431,-0.162C0.441,-0.174 0.448,-0.188 0.454,-0.204C0.459,-0.219 0.461,-0.235 0.461,-0.251Z" style="fill:rgb(249,191,75);fill-rule:nonzero;"/>
                </g>
                <g transform="matrix(50,0,0,50,1089.79,1352.53)">
                    <path d="M0.242,-0.657C0.242,-0.644 0.24,-0.632 0.235,-0.622C0.23,-0.611 0.223,-0.601 0.215,-0.593C0.206,-0.585 0.196,-0.579 0.185,-0.574C0.173,-0.569 0.161,-0.567 0.148,-0.567C0.121,-0.567 0.099,-0.576 0.081,-0.594C0.063,-0.611 0.054,-0.632 0.054,-0.657C0.054,-0.669 0.056,-0.681 0.061,-0.692C0.066,-0.703 0.072,-0.712 0.081,-0.72C0.09,-0.728 0.1,-0.735 0.111,-0.74C0.122,-0.745 0.135,-0.747 0.148,-0.747C0.161,-0.747 0.173,-0.745 0.185,-0.74C0.196,-0.735 0.206,-0.729 0.215,-0.721C0.223,-0.713 0.23,-0.704 0.235,-0.693C0.24,-0.682 0.242,-0.67 0.242,-0.657ZM0.066,-0L0.066,-0.498L0.23,-0.498L0.23,-0L0.066,-0Z" style="fill:rgb(249,191,75);fill-rule:nonzero;"/>
                </g>
                <g transform="matrix(50,0,0,50,1105.59,1352.53)">
                    <path d="M0.242,-0.375L0.242,-0.185C0.242,-0.162 0.247,-0.144 0.256,-0.133C0.265,-0.121 0.281,-0.115 0.304,-0.115C0.312,-0.115 0.321,-0.116 0.33,-0.117C0.339,-0.118 0.346,-0.12 0.352,-0.123L0.354,-0.003C0.343,0.001 0.328,0.005 0.311,0.008C0.294,0.011 0.276,0.012 0.259,0.012C0.226,0.012 0.198,0.008 0.175,-0.001C0.152,-0.009 0.134,-0.021 0.121,-0.037C0.107,-0.052 0.097,-0.071 0.091,-0.093C0.085,-0.114 0.082,-0.138 0.082,-0.165L0.082,-0.375L0.002,-0.375L0.002,-0.498L0.081,-0.498L0.081,-0.629L0.242,-0.629L0.242,-0.498L0.359,-0.498L0.359,-0.375L0.242,-0.375Z" style="fill:rgb(249,191,75);fill-rule:nonzero;"/>
                </g>
            </g>
        </g>
    </g>
</svg>
